<svg width="137" height="137" viewBox="0 0 137 137" fill="none" xmlns="http://www.w3.org/2000/svg">
<rect x="89" y="89" width="47" height="47" rx="2" fill="black" fill-opacity="0.7" stroke="white" stroke-width="2"/>
<path d="M110.389 122V119.889H106.599L111.349 115.139L109.861 113.651L105.111 118.401V114.611H103V122H110.389ZM115.139 111.349L119.889 106.599V110.389H122V103H114.611V105.111H118.401L113.651 109.861L115.139 111.349Z" fill="white"/>
<path d="M12.8571 11.3143L18 16.4571L16.4571 18L11.3143 12.8571V12.0446L11.0366 11.7566C9.864 12.7646 8.34171 13.3714 6.68571 13.3714C4.91255 13.3714 3.21202 12.667 1.9582 11.4132C0.704386 10.1594 0 8.45888 0 6.68571C0 4.91255 0.704386 3.21202 1.9582 1.9582C3.21202 0.704386 4.91255 0 6.68571 0C8.45888 0 10.1594 0.704386 11.4132 1.9582C12.667 3.21202 13.3714 4.91255 13.3714 6.68571C13.3714 8.34171 12.7646 9.864 11.7566 11.0366L12.0446 11.3143H12.8571ZM6.68571 11.3143C9.25714 11.3143 11.3143 9.25714 11.3143 6.68571C11.3143 4.11429 9.25714 2.05714 6.68571 2.05714C4.11429 2.05714 2.05714 4.11429 2.05714 6.68571C2.05714 9.25714 4.11429 11.3143 6.68571 11.3143ZM9.25714 7.2H7.2V9.25714H6.17143V7.2H4.11429V6.17143H6.17143V4.11429H7.2V6.17143H9.25714V7.2Z" fill="#BDBDBD"/>
</svg>
